<?xml version='1.0' encoding='UTF-8'?>
<!-- Created with Inkscape (http://www.inkscape.org/) and export_objects.py -->
<svg xmlns:cc="http://creativecommons.org/ns#" xmlns:dc="http://purl.org/dc/elements/1.1/" xmlns:inkscape="http://www.inkscape.org/namespaces/inkscape" xmlns:rdf="http://www.w3.org/1999/02/22-rdf-syntax-ns#" xmlns:sodipodi="http://sodipodi.sourceforge.net/DTD/sodipodi-0.dtd" xmlns:xlink="http://www.w3.org/1999/xlink" xmlns="http://www.w3.org/2000/svg" version="1.1" width="57.1500052917mm" height="88.9mm" viewBox="0 0 57.1500052917 88.9" id="svg3208" sodipodi:docname="ace-03.svg"><sodipodi:namedview id="base" pagecolor="#ffffff" bordercolor="#666666" borderopacity="1.0" inkscape:pageopacity="0.0" inkscape:pageshadow="2" inkscape:zoom="0.35" inkscape:cx="-131.42857" inkscape:cy="560" inkscape:document-units="mm" inkscape:current-layer="layer1" showgrid="false" inkscape:window-width="1920" inkscape:window-height="986" inkscape:window-x="-11" inkscape:window-y="-11" inkscape:window-maximized="1"/>
  <metadata id="metadata3205">
    <rdf:RDF>
      <cc:Work rdf:about="">
        <dc:format>image/svg+xml</dc:format>
        <dc:type rdf:resource="http://purl.org/dc/dcmitype/StillImage"/>
      </cc:Work>
    </rdf:RDF>
  </metadata>
  <g inkscape:groupmode="layer" inkscape:label="ace-" transform="matrix(1.000000,0.000000,0.000000,1.000000,-84.817855,-156.695219)"><g id="g3433" inkscape:label="03">
      <path id="rect32149" d="m 84.817856,156.69522 h 57.150004 v 88.9 H 84.817856 Z" style="display:inline;opacity:1;fill:#ffffff;fill-opacity:1;stroke:none;stroke-width:0.03527778;stroke-linecap:butt;stroke-linejoin:miter;stroke-miterlimit:47.14606857;stroke-dasharray:none;stroke-dashoffset:0;stroke-opacity:1;paint-order:markers fill stroke"/>
      <g id="text32245" style="font-style:normal;font-variant:normal;font-weight:normal;font-stretch:normal;font-size:21.16666794px;line-height:125%;font-family:'Stint Ultra Condensed';-inkscape-font-specification:'Stint Ultra Condensed, ';font-variant-ligatures:normal;font-variant-caps:normal;font-variant-numeric:normal;font-feature-settings:normal;text-align:center;letter-spacing:0px;word-spacing:0px;writing-mode:lr-tb;text-anchor:middle;display:inline;fill:#e6180a;fill-opacity:1;stroke:none;stroke-width:0.26458338" aria-label="A">
        <path id="path3357" style="font-style:normal;font-variant:normal;font-weight:normal;font-stretch:normal;font-size:21.16666794px;font-family:'Stint Ultra Condensed';-inkscape-font-specification:'Stint Ultra Condensed, ';text-align:center;text-anchor:middle;fill:#e6180a;fill-opacity:1;stroke-width:0.26458338" d="m 93.778565,169.33121 h -2.087728 l -0.50643,3.65869 h 1.116211 v 1.16789 h -3.348633 v -1.16789 h 0.981853 l 1.901693,-11.87524 h -1.395264 v -1.15755 h 3.028239 l 2.139404,13.03279 h 0.950847 v 1.16789 h -3.348633 v -1.16789 h 1.126546 z m -1.943034,-1.09554 H 93.6132 l -0.909505,-6.1805 z"/>
      </g>
      <g id="text32249" style="font-style:normal;font-variant:normal;font-weight:normal;font-stretch:normal;font-size:21.16666794px;line-height:125%;font-family:'Stint Ultra Condensed';-inkscape-font-specification:'Stint Ultra Condensed, ';font-variant-ligatures:normal;font-variant-caps:normal;font-variant-numeric:normal;font-feature-settings:normal;text-align:center;letter-spacing:0px;word-spacing:0px;writing-mode:lr-tb;text-anchor:middle;display:inline;fill:#e6180a;fill-opacity:1;stroke:none;stroke-width:0.26458338" transform="scale(-1)" aria-label="A">
        <path id="path3354" style="font-style:normal;font-variant:normal;font-weight:normal;font-stretch:normal;font-size:21.16666794px;font-family:'Stint Ultra Condensed';-inkscape-font-specification:'Stint Ultra Condensed, ';text-align:center;text-anchor:middle;fill:#e6180a;fill-opacity:1;stroke-width:0.26458338" d="m -133.0072,-232.95938 h -2.08773 l -0.50643,3.6587 h 1.11621 v 1.16788 h -3.34863 v -1.16788 h 0.98185 l 1.90169,-11.87525 h -1.39526 v -1.15755 h 3.02824 l 2.1394,13.0328 h 0.95085 v 1.16788 h -3.34863 v -1.16788 h 1.12654 z m -1.94304,-1.09554 h 1.77767 l -0.9095,-6.1805 z"/>
      </g>
      <g id="g35849" transform="matrix(-0.99968256,0,0,-0.99968256,113.36301,201.14529)" style="display:inline;stroke-width:0.63496554">
        <path inkscape:connector-curvature="0" id="path35847" d="m -7.67,3.93 c 0.01,-4.71 5.91,-8.14 7.64,-11.87 1.75,3.72 7.66,7.12 7.7,11.83 C 7.68,6.11 5.96,7.92 3.85,7.92 1.73,7.92 0,6.13 0,3.91 0,6.14 -1.71,7.94 -3.82,7.94 -5.94,7.95 -7.66,6.15 -7.67,3.93 Z" style="fill:#e6180a;stroke-width:0.63496554"/>
      </g>
      <g id="g36145" transform="matrix(-0.59980954,0,0,-0.59980954,92.737517,180.50777)" style="display:inline;stroke-width:1.05827594">
        <path inkscape:connector-curvature="0" id="path36143" d="m -7.67,3.93 c 0.01,-4.71 5.91,-8.14 7.64,-11.87 1.75,3.72 7.66,7.12 7.7,11.83 C 7.68,6.11 5.96,7.92 3.85,7.92 1.73,7.92 0,6.13 0,3.91 0,6.14 -1.71,7.94 -3.82,7.94 -5.94,7.95 -7.66,6.15 -7.67,3.93 Z" style="fill:#e6180a;stroke-width:1.05827594"/>
      </g>
      <g style="display:inline;stroke-width:1.05827594" transform="matrix(0.59980954,0,0,0.59980954,134.04851,221.78276)" id="g36149">
        <path style="fill:#e6180a;stroke-width:1.05827594" d="m -7.67,3.93 c 0.01,-4.71 5.91,-8.14 7.64,-11.87 1.75,3.72 7.66,7.12 7.7,11.83 C 7.68,6.11 5.96,7.92 3.85,7.92 1.73,7.92 0,6.13 0,3.91 0,6.14 -1.71,7.94 -3.82,7.94 -5.94,7.95 -7.66,6.15 -7.67,3.93 Z" id="path36147" inkscape:connector-curvature="0"/>
      </g>
    </g>
    </g></svg>
