<?xml version="1.0" encoding="UTF-8" standalone="no"?>
<!-- Created with Inkscape (http://www.inkscape.org/) -->

<svg
   xmlns:dc="http://purl.org/dc/elements/1.1/"
   xmlns:cc="http://creativecommons.org/ns#"
   xmlns:rdf="http://www.w3.org/1999/02/22-rdf-syntax-ns#"
   xmlns:svg="http://www.w3.org/2000/svg"
   xmlns="http://www.w3.org/2000/svg"
   xmlns:sodipodi="http://sodipodi.sourceforge.net/DTD/sodipodi-0.dtd"
   xmlns:inkscape="http://www.inkscape.org/namespaces/inkscape"
   width="2.25in"
   height="3.5in"
   viewBox="0 0 57.150001 88.900003"
   version="1.1"
   id="svg8"
   inkscape:version="0.92.3 (2405546, 2018-03-11)"
   sodipodi:docname="little colon.svg">
  <defs
     id="defs2" />
  <sodipodi:namedview
     id="base"
     pagecolor="#ffffff"
     bordercolor="#666666"
     borderopacity="1.0"
     inkscape:pageopacity="0.0"
     inkscape:pageshadow="2"
     inkscape:zoom="2.1634614"
     inkscape:cx="108"
     inkscape:cy="167.99999"
     inkscape:document-units="in"
     inkscape:current-layer="layer1"
     showgrid="true"
     units="in"
     inkscape:snap-smooth-nodes="false"
     inkscape:window-width="1280"
     inkscape:window-height="940"
     inkscape:window-x="1909"
     inkscape:window-y="43"
     inkscape:window-maximized="1"
     inkscape:snap-text-baseline="true"
     inkscape:snap-bbox="true"
     inkscape:snap-bbox-edge-midpoints="true"
     inkscape:snap-nodes="false"
     inkscape:snap-others="false"
     showguides="false"
     inkscape:guide-bbox="true"
     inkscape:bbox-nodes="false">
    <inkscape:grid
       type="xygrid"
       id="grid10"
       units="pt"
       spacingx="0.79375002"
       spacingy="0.79375002" />
    <sodipodi:guide
       position="31.75,44.45"
       orientation="0,1"
       id="guide136"
       inkscape:locked="false" />
    <sodipodi:guide
       position="28.575,46.0375"
       orientation="1,0"
       id="guide138"
       inkscape:locked="false" />
    <sodipodi:guide
       position="19.05,42.8625"
       orientation="1,0"
       id="guide140"
       inkscape:locked="false" />
    <sodipodi:guide
       position="38.1,61.9125"
       orientation="1,0"
       id="guide142"
       inkscape:locked="false" />
    <sodipodi:guide
       position="39.687501,28.575001"
       orientation="0,1"
       id="guide144"
       inkscape:locked="false" />
    <sodipodi:guide
       position="42.068751,42.862501"
       orientation="0,1"
       id="guide146"
       inkscape:locked="false" />
    <sodipodi:guide
       position="46.831251,35.718751"
       orientation="0,1"
       id="guide148"
       inkscape:locked="false" />
  </sodipodi:namedview>
  <metadata
     id="metadata5">
    <rdf:RDF>
      <cc:Work
         rdf:about="">
        <dc:format>image/svg+xml</dc:format>
        <dc:type
           rdf:resource="http://purl.org/dc/dcmitype/StillImage" />
        <dc:title></dc:title>
      </cc:Work>
    </rdf:RDF>
  </metadata>
  <g
     inkscape:label="Layer 1"
     inkscape:groupmode="layer"
     id="layer1"
     transform="translate(0,-208.09999)">
    <rect
       style="opacity:1;fill:#008000;fill-opacity:1;stroke:none;stroke-width:0.05;stroke-linecap:butt;stroke-linejoin:miter;stroke-miterlimit:47.14606857;stroke-dasharray:none;stroke-dashoffset:0;stroke-opacity:1;paint-order:markers fill stroke"
       id="rect99"
       width="28.575001"
       height="82.550003"
       x="14.2875"
       y="211.27499" />
    <path
       style="opacity:1;fill:#008000;fill-opacity:1;stroke:none;stroke-width:0.19199999;stroke-linecap:butt;stroke-linejoin:miter;stroke-miterlimit:47.14606857;stroke-dasharray:none;stroke-dashoffset:0;stroke-opacity:1;paint-order:markers fill stroke"
       d="M 30 12 A 18.000001 18.000001 0 0 0 12 30 A 18.000001 18.000001 0 0 0 30 48 A 18.000001 18.000001 0 0 0 48 30 A 18.000001 18.000001 0 0 0 30 12 z M 30 18 A 12 12 0 0 1 42 30 A 12 12 0 0 1 30 42 A 12 12 0 0 1 18 30 A 12 12 0 0 1 30 18 z M 30 54 A 18.000001 18.000001 0 0 0 12 72 A 18.000001 18.000001 0 0 0 30 90 A 18.000001 18.000001 0 0 0 48 72 A 18.000001 18.000001 0 0 0 30 54 z M 30 60 A 12 12 0 0 1 42 72 A 12 12 0 0 1 30 84 A 12 12 0 0 1 18 72 A 12 12 0 0 1 30 60 z "
       transform="matrix(0.26458334,0,0,0.26458334,0,208.09999)"
       id="path12" />
    <path
       style="opacity:1;fill:#008000;fill-opacity:1;stroke:none;stroke-width:0.19199999;stroke-linecap:butt;stroke-linejoin:miter;stroke-miterlimit:47.14606857;stroke-dasharray:none;stroke-dashoffset:0;stroke-opacity:1;paint-order:markers fill stroke"
       d="M 186 246 A 18.000001 18.000001 0 0 0 168 264 A 18.000001 18.000001 0 0 0 186 282 A 18.000001 18.000001 0 0 0 204 264 A 18.000001 18.000001 0 0 0 186 246 z M 186 252 A 12 12 0 0 1 198 264 A 12 12 0 0 1 186 276 A 12 12 0 0 1 174 264 A 12 12 0 0 1 186 252 z M 186 288 A 18.000001 18.000001 0 0 0 168 306 A 18.000001 18.000001 0 0 0 186 324 A 18.000001 18.000001 0 0 0 204 306 A 18.000001 18.000001 0 0 0 186 288 z M 186 294 A 12 12 0 0 1 198 306 A 12 12 0 0 1 186 318 A 12 12 0 0 1 174 306 A 12 12 0 0 1 186 294 z "
       transform="matrix(0.26458334,0,0,0.26458334,0,208.09999)"
       id="path16" />
    <g
       aria-label="2"
       style="font-style:normal;font-variant:normal;font-weight:normal;font-stretch:ultra-condensed;font-size:21.16666794px;line-height:50%;font-family:'Stint Ultra Condensed';-inkscape-font-specification:'Stint Ultra Condensed, Ultra-Condensed';font-variant-ligatures:normal;font-variant-caps:normal;font-variant-numeric:normal;text-align:center;letter-spacing:0px;word-spacing:0px;writing-mode:lr-tb;text-anchor:middle;fill:#008000;fill-opacity:1;stroke:none;stroke-width:0.26458335"
       id="text16">
      <path
         d="m 5.022949,247.78749 v -0.86816 q 0.9301759,-1.31258 1.6639813,-2.51148 0.7441406,-1.20923 1.260905,-2.38745 0.5167643,-1.17822 0.7854818,-2.38745 0.2790528,-1.20923 0.2790528,-2.53215 0,-0.51676 -0.072347,-0.99218 -0.062012,-0.47543 -0.2067057,-0.83716 -0.144694,-0.37207 -0.3927409,-0.58911 -0.2480469,-0.22738 -0.5994467,-0.22738 -0.651123,0 -0.9818522,0.90951 -0.3307292,0.9095 -0.3307292,2.87321 H 5.1159666 q 0,-1.34359 0.2170411,-2.27377 0.217041,-0.94051 0.5684407,-1.51928 0.3617351,-0.58912 0.826823,-0.8475 0.4754232,-0.26872 0.971517,-0.26872 0.6407878,0 1.1265463,0.28939 0.4857585,0.28939 0.8164877,0.80615 0.3307292,0.51677 0.4960936,1.2299 0.1757,0.71314 0.1757,1.5503 0,1.98437 -0.9198405,4.34082 -0.9095053,2.34611 -2.7801922,5.05395 h 2.7491863 v -2.83187 h 1.1265464 v 4.02043 z"
         style="line-height:50%;text-align:center;text-anchor:middle;fill:#008000;fill-opacity:1;stroke-width:0.26458335"
         id="path163" />
    </g>
    <path
       inkscape:connector-curvature="0"
       id="path101"
       style="font-style:normal;font-variant:normal;font-weight:normal;font-stretch:ultra-condensed;font-size:21.16666794px;line-height:80.00000119%;font-family:'Stint Ultra Condensed';-inkscape-font-specification:'Stint Ultra Condensed, Ultra-Condensed';font-variant-ligatures:normal;font-variant-caps:normal;font-variant-numeric:normal;font-feature-settings:normal;text-align:center;letter-spacing:0px;word-spacing:0px;writing-mode:lr-tb;text-anchor:middle;fill:#ffffff;fill-opacity:1;stroke:none;stroke-width:0.26458335"
       d="m 16.316318,233.49999 v -0.86816 q 0.930176,-1.31259 1.663981,-2.51148 0.744141,-1.20923 1.260905,-2.38745 0.516765,-1.17822 0.785482,-2.38745 0.279053,-1.20923 0.279053,-2.53215 0,-0.51676 -0.07235,-0.99218 -0.06201,-0.47543 -0.206706,-0.83716 -0.144694,-0.37207 -0.392741,-0.58911 -0.248047,-0.22738 -0.599446,-0.22738 -0.651123,0 -0.981853,0.90951 -0.330729,0.9095 -0.330729,2.8732 h -1.312581 q 0,-1.34358 0.217041,-2.27376 0.217041,-0.94051 0.568441,-1.51929 0.361735,-0.58911 0.826823,-0.84749 0.475423,-0.26872 0.971517,-0.26872 0.640787,0 1.126546,0.28939 0.485758,0.28939 0.816488,0.80615 0.330729,0.51677 0.496093,1.2299 0.1757,0.71314 0.1757,1.5503 0,1.98437 -0.91984,4.34082 -0.909506,2.34611 -2.780193,5.05395 h 2.749187 v -2.83187 h 1.126546 v 4.02043 z" />
    <path
       inkscape:connector-curvature="0"
       id="path103"
       style="font-style:normal;font-variant:normal;font-weight:normal;font-stretch:ultra-condensed;font-size:21.16666794px;line-height:80.00000119%;font-family:'Stint Ultra Condensed';-inkscape-font-specification:'Stint Ultra Condensed, Ultra-Condensed';font-variant-ligatures:normal;font-variant-caps:normal;font-variant-numeric:normal;font-feature-settings:normal;text-align:center;letter-spacing:0px;word-spacing:0px;writing-mode:lr-tb;text-anchor:middle;fill:#ffffff;fill-opacity:1;stroke:none;stroke-width:0.26458335"
       d="m 28.843719,224.58684 q 0.826823,0.2067 1.312582,0.71313 0.496094,0.49609 0.74414,1.13688 0.258383,0.63045 0.33073,1.32292 0.08268,0.68213 0.08268,1.25057 0,1.11621 -0.19637,1.99471 -0.196371,0.86816 -0.568441,1.46761 -0.372071,0.59945 -0.89917,0.9095 -0.516765,0.31006 -1.167888,0.31006 -0.54777,0 -1.033528,-0.26871 -0.475424,-0.25839 -0.837159,-0.8475 -0.361735,-0.58911 -0.56844,-1.51929 -0.206706,-0.94051 -0.206706,-2.28409 h 1.27124 q 0,1.97404 0.3514,2.88354 0.3514,0.90951 1.085205,0.90951 0.403076,0 0.682129,-0.27906 0.279053,-0.28938 0.444417,-0.77514 0.1757,-0.48576 0.248047,-1.12655 0.08268,-0.64079 0.08268,-1.35392 0,-0.77515 -0.124024,-1.4056 -0.124023,-0.64079 -0.403076,-1.09554 -0.268718,-0.45475 -0.713135,-0.7028 -0.444417,-0.25838 -1.085205,-0.26872 v -1.11621 l 2.118734,-4.05143 H 27.23141 v 2.23242 h -1.126547 v -3.41064 h 5.146973 v 0.88883 z" />
    <path
       inkscape:connector-curvature="0"
       id="path105"
       style="font-style:normal;font-variant:normal;font-weight:normal;font-stretch:ultra-condensed;font-size:21.16666794px;line-height:80.00000119%;font-family:'Stint Ultra Condensed';-inkscape-font-specification:'Stint Ultra Condensed, Ultra-Condensed';font-variant-ligatures:normal;font-variant-caps:normal;font-variant-numeric:normal;font-feature-settings:normal;text-align:center;letter-spacing:0px;word-spacing:0px;writing-mode:lr-tb;text-anchor:middle;fill:#ffffff;fill-opacity:1;stroke:none;stroke-width:0.26458335"
       d="m 37.2215,232.3321 h 1.260905 v -2.53214 h -3.482991 v -1.08521 l 3.09025,-9.41544 h 1.643311 v 9.39477 h 1.467611 v 1.10588 h -1.467611 v 2.53214 h 1.27124 v 1.16789 H 37.2215 Z m 1.260905,-11.00708 -2.387451,7.36906 h 2.387451 z" />
    <path
       inkscape:connector-curvature="0"
       id="path107"
       style="font-style:normal;font-variant:normal;font-weight:normal;font-stretch:ultra-condensed;font-size:21.16666794px;line-height:80.00000119%;font-family:'Stint Ultra Condensed';-inkscape-font-specification:'Stint Ultra Condensed, Ultra-Condensed';font-variant-ligatures:normal;font-variant-caps:normal;font-variant-numeric:normal;font-feature-settings:normal;text-align:center;letter-spacing:0px;word-spacing:0px;writing-mode:lr-tb;text-anchor:middle;fill:#ffffff;fill-opacity:1;stroke:none;stroke-width:0.26458335"
       d="m 17.77876,242.25605 q 0.330729,-0.38241 0.692464,-0.50643 0.372071,-0.12403 0.775147,-0.12403 0.589111,0 1.054199,0.36174 0.475423,0.36173 0.795817,1.01286 0.330729,0.64078 0.506429,1.52962 0.1757,0.88883 0.1757,1.94303 0,0.97152 -0.155029,1.82935 -0.155029,0.84749 -0.485759,1.48828 -0.320394,0.63045 -0.837158,1.00252 -0.516764,0.36174 -1.229899,0.36174 -0.5271,0.0207 -1.023193,-0.23771 -0.485759,-0.25839 -0.8785,-0.81649 -0.382406,-0.56844 -0.620117,-1.46761 -0.227376,-0.89917 -0.227376,-2.16008 h 1.29191 q 0,1.80868 0.413412,2.69751 0.423747,0.8785 1.043864,0.8785 0.3514,0 0.609782,-0.25838 0.258382,-0.26872 0.434082,-0.74414 0.1757,-0.47542 0.258382,-1.12655 0.09302,-0.66146 0.09302,-1.44694 0,-1.81901 -0.361735,-2.78019 -0.361735,-0.96118 -1.157553,-0.96118 -0.465087,0 -0.806152,0.31006 -0.330729,0.29972 -0.506429,0.9095 h -1.054199 l 0.248047,-7.27604 h 4.485514 v 1.17822 h -3.358968 z" />
    <path
       inkscape:connector-curvature="0"
       id="path109"
       style="font-style:normal;font-variant:normal;font-weight:normal;font-stretch:ultra-condensed;font-size:21.16666794px;line-height:80.00000119%;font-family:'Stint Ultra Condensed';-inkscape-font-specification:'Stint Ultra Condensed, Ultra-Condensed';font-variant-ligatures:normal;font-variant-caps:normal;font-variant-numeric:normal;font-feature-settings:normal;text-align:center;letter-spacing:0px;word-spacing:0px;writing-mode:lr-tb;text-anchor:middle;fill:#ffffff;fill-opacity:1;stroke:none;stroke-width:0.26458335"
       d="m 27.04021,243.49628 q 0.07235,-0.18604 0.206706,-0.47543 0.144694,-0.28939 0.37207,-0.5581 0.237712,-0.27906 0.568441,-0.46509 0.330729,-0.19637 0.785482,-0.19637 0.506429,0 0.950846,0.28939 0.444417,0.28938 0.764811,0.86816 0.330729,0.57878 0.516765,1.45728 0.19637,0.86816 0.19637,2.04638 0,0.97152 -0.186035,1.82935 -0.1757,0.84749 -0.516764,1.48828 -0.341065,0.63045 -0.837159,1.00252 -0.496094,0.36174 -1.126546,0.36174 -0.630453,0 -1.178223,-0.42375 -0.537435,-0.43408 -0.940511,-1.29191 -0.403076,-0.86816 -0.640788,-2.17041 -0.227376,-1.30225 -0.227376,-3.05925 0,-1.79834 0.1757,-3.23494 0.1757,-1.44694 0.537435,-2.4598 0.37207,-1.01286 0.930176,-1.55029 0.56844,-0.54777 1.343587,-0.54777 0.496094,0 0.940511,0.27905 0.444417,0.26872 0.775147,0.80615 0.341064,0.53744 0.527099,1.34359 0.196371,0.79582 0.196371,1.85002 h -1.271241 q 0,-1.53996 -0.310058,-2.34611 -0.299724,-0.80616 -0.919841,-0.80616 -0.434082,0 -0.74414,0.48576 -0.310059,0.47543 -0.506429,1.29191 -0.196371,0.81649 -0.289389,1.9017 -0.09302,1.07487 -0.09302,2.2841 z m 1.674316,-0.56845 q -0.320394,0 -0.578776,0.29973 -0.258382,0.29972 -0.465088,0.7338 -0.19637,0.43409 -0.330729,0.93018 -0.134359,0.49609 -0.19637,0.88883 -0.02067,0.77515 0.08268,1.52963 0.113688,0.75447 0.320394,1.36425 0.217041,0.59945 0.516764,0.97152 0.310059,0.37207 0.671794,0.37207 0.330729,0 0.589111,-0.24805 0.258383,-0.25838 0.434082,-0.72347 0.1757,-0.46508 0.258383,-1.11621 0.09302,-0.66146 0.09302,-1.46761 0,-0.82682 -0.08268,-1.47794 -0.08268,-0.66146 -0.258382,-1.11621 -0.165365,-0.45476 -0.434082,-0.69247 -0.258383,-0.24805 -0.620118,-0.24805 z" />
    <path
       inkscape:connector-curvature="0"
       id="path111"
       style="font-style:normal;font-variant:normal;font-weight:normal;font-stretch:ultra-condensed;font-size:21.16666794px;line-height:80.00000119%;font-family:'Stint Ultra Condensed';-inkscape-font-specification:'Stint Ultra Condensed, Ultra-Condensed';font-variant-ligatures:normal;font-variant-caps:normal;font-variant-numeric:normal;font-feature-settings:normal;text-align:center;letter-spacing:0px;word-spacing:0px;writing-mode:lr-tb;text-anchor:middle;fill:#ffffff;fill-opacity:1;stroke:none;stroke-width:0.26458335"
       d="m 35.361149,240.49905 v -3.82406 h 5.477702 v 0.71314 q -1.291911,2.68717 -2.015381,6.02547 -0.713135,3.3383 -0.713135,7.46207 h -1.353922 q 0,-2.51147 0.279052,-4.53719 0.289389,-2.03605 0.692465,-3.62768 0.403076,-1.60197 0.847493,-2.80086 0.454753,-1.1989 0.785482,-2.05673 H 36.47736 v 2.64584 z" />
    <path
       inkscape:connector-curvature="0"
       id="path113"
       style="font-style:normal;font-variant:normal;font-weight:normal;font-stretch:ultra-condensed;font-size:21.16666794px;line-height:80.00000119%;font-family:'Stint Ultra Condensed';-inkscape-font-specification:'Stint Ultra Condensed, Ultra-Condensed';font-variant-ligatures:normal;font-variant-caps:normal;font-variant-numeric:normal;font-feature-settings:normal;text-align:center;letter-spacing:0px;word-spacing:0px;writing-mode:lr-tb;text-anchor:middle;fill:#ffffff;fill-opacity:1;stroke:none;stroke-width:0.26458335"
       d="m 24.830526,260.61978 q 0.940511,0.3514 1.405599,1.36426 0.475423,1.01286 0.475423,2.51148 0,0.91984 -0.19637,1.68465 -0.19637,0.76481 -0.568441,1.31258 -0.37207,0.54777 -0.909505,0.85783 -0.537435,0.29972 -1.219564,0.29972 -0.682129,0 -1.219564,-0.29972 -0.537435,-0.31006 -0.91984,-0.85783 -0.372071,-0.54777 -0.568441,-1.31258 -0.196371,-0.76481 -0.196371,-1.68465 0,-0.74414 0.124024,-1.38493 0.124023,-0.64079 0.361735,-1.13688 0.237712,-0.50643 0.589111,-0.85783 0.3514,-0.36174 0.806153,-0.53744 -0.372071,-0.21704 -0.651123,-0.5581 -0.268718,-0.3514 -0.454753,-0.75448 -0.1757,-0.41341 -0.268718,-0.86816 -0.08268,-0.45476 -0.08268,-0.88884 0,-0.79581 0.1757,-1.45727 0.1757,-0.66146 0.496094,-1.13688 0.330729,-0.47543 0.785482,-0.73381 0.454752,-0.26872 1.002523,-0.26872 0.54777,0 1.002522,0.26872 0.454753,0.25838 0.785482,0.73381 0.330729,0.47542 0.516765,1.13688 0.186035,0.66146 0.186035,1.45727 0,0.43408 -0.09302,0.89917 -0.08268,0.45476 -0.268717,0.8785 -0.1757,0.41341 -0.454753,0.76481 -0.268717,0.3514 -0.640788,0.56844 z m 0.186035,-3.03857 q 0,-0.50643 -0.07235,-0.97152 -0.06201,-0.46509 -0.206705,-0.81648 -0.134359,-0.36174 -0.372071,-0.56845 -0.227376,-0.2067 -0.54777,-0.2067 -0.330729,0 -0.568441,0.2067 -0.227376,0.20671 -0.37207,0.56845 -0.144694,0.35139 -0.206706,0.81648 -0.06201,0.46509 -0.06201,0.97152 0,0.50643 0.07235,0.97152 0.07235,0.46508 0.217041,0.81648 0.155029,0.3514 0.382405,0.55811 0.227376,0.20671 0.537435,0.20671 0.310059,0 0.537435,-0.20671 0.227376,-0.20671 0.37207,-0.55811 0.144694,-0.3514 0.217041,-0.81648 0.07235,-0.46509 0.07235,-0.97152 z m -1.198893,3.59668 q -0.754476,0 -1.178223,0.83716 -0.413411,0.83716 -0.413411,2.33577 0,1.48828 0.403076,2.34611 0.403076,0.8475 1.188558,0.8475 0.775147,0 1.178223,-0.8475 0.403076,-0.85783 0.403076,-2.34611 0,-0.74414 -0.113688,-1.33325 -0.103353,-0.58911 -0.310059,-0.99219 -0.206705,-0.41341 -0.506429,-0.63045 -0.289388,-0.21704 -0.651123,-0.21704 z" />
    <path
       inkscape:connector-curvature="0"
       id="path115"
       style="font-style:normal;font-variant:normal;font-weight:normal;font-stretch:ultra-condensed;font-size:21.16666794px;line-height:80.00000119%;font-family:'Stint Ultra Condensed';-inkscape-font-specification:'Stint Ultra Condensed, Ultra-Condensed';font-variant-ligatures:normal;font-variant-caps:normal;font-variant-numeric:normal;font-feature-settings:normal;text-align:center;letter-spacing:0px;word-spacing:0px;writing-mode:lr-tb;text-anchor:middle;fill:#ffffff;fill-opacity:1;stroke:none;stroke-width:0.26458335"
       d="m 34.87229,261.5603 q -0.07235,0.18603 -0.217041,0.47542 -0.134358,0.28939 -0.37207,0.5581 -0.227376,0.26872 -0.558105,0.46509 -0.33073,0.18604 -0.785482,0.18604 -0.506429,0 -0.950847,-0.27906 -0.444417,-0.28938 -0.775146,-0.86816 -0.320394,-0.57878 -0.516765,-1.44694 -0.186035,-0.8785 -0.186035,-2.05672 0,-0.97152 0.1757,-1.81901 0.1757,-0.85783 0.516764,-1.48828 0.341065,-0.64079 0.837159,-1.00253 0.496093,-0.37207 1.136881,-0.37207 0.630453,0 1.167888,0.43408 0.54777,0.42375 0.950846,1.29192 0.403076,0.85782 0.630453,2.16007 0.237711,1.30225 0.237711,3.05925 0,1.79834 -0.1757,3.24528 -0.175699,1.4366 -0.54777,2.44946 -0.361735,1.01286 -0.930176,1.56063 -0.558105,0.53743 -1.333252,0.53743 -0.496093,0 -0.940511,-0.27905 -0.444417,-0.26872 -0.785482,-0.80615 -0.330729,-0.53744 -0.527099,-1.33325 -0.186035,-0.80616 -0.186035,-1.86036 h 1.27124 q 0,1.53996 0.299723,2.34611 0.310059,0.80616 0.930176,0.80616 0.434082,0 0.744141,-0.47543 0.310058,-0.48576 0.506429,-1.30224 0.19637,-0.81649 0.289388,-1.89136 0.09302,-1.08521 0.09302,-2.29443 z m -1.674316,0.56844 q 0.320394,0 0.578776,-0.29973 0.258382,-0.29972 0.454753,-0.7338 0.206705,-0.43408 0.341064,-0.93018 0.134359,-0.49609 0.196371,-0.89917 0.02067,-0.76481 -0.09302,-1.51929 -0.103353,-0.76481 -0.320394,-1.36425 -0.206706,-0.59945 -0.516764,-0.97152 -0.299724,-0.37207 -0.661459,-0.37207 -0.330729,0 -0.589111,0.25838 -0.258382,0.24805 -0.434082,0.71314 -0.1757,0.46508 -0.268718,1.12654 -0.08268,0.65113 -0.08268,1.45728 0,0.82682 0.08268,1.48828 0.08268,0.65112 0.248047,1.10587 0.1757,0.45476 0.434082,0.7028 0.268718,0.23772 0.630453,0.23772 z" />
    <g
       id="g134"
       transform="translate(0.1756995,0.84750228)">
      <path
         d="m 23.112801,283.87211 h 1.374593 v -11.89592 l -1.694987,1.06454 v -1.14722 l 1.694987,-1.0542 h 1.27124 v 13.0328 h 1.374594 v 1.16788 h -4.020427 z"
         style="font-style:normal;font-variant:normal;font-weight:normal;font-stretch:ultra-condensed;font-size:21.16666794px;line-height:80.00000119%;font-family:'Stint Ultra Condensed';-inkscape-font-specification:'Stint Ultra Condensed, Ultra-Condensed';font-variant-ligatures:normal;font-variant-caps:normal;font-variant-numeric:normal;font-feature-settings:normal;text-align:center;letter-spacing:0px;word-spacing:0px;writing-mode:lr-tb;text-anchor:middle;fill:#ffffff;fill-opacity:1;stroke:none;stroke-width:0.26458335"
         id="path117"
         inkscape:connector-curvature="0" />
      <path
         d="m 34.006194,277.94999 q 0,1.94303 -0.227377,3.33829 -0.227376,1.39527 -0.630452,2.29444 -0.403076,0.88883 -0.961182,1.31258 -0.54777,0.42375 -1.188558,0.42375 -0.651123,0 -1.209228,-0.42375 -0.547771,-0.42375 -0.961182,-1.31258 -0.403076,-0.89917 -0.630453,-2.29444 -0.227376,-1.39526 -0.227376,-3.33829 0,-1.9327 0.227376,-3.32797 0.227377,-1.39526 0.630453,-2.29443 0.413411,-0.89917 0.961182,-1.32292 0.558105,-0.42374 1.209228,-0.42374 0.640788,0 1.188558,0.42374 0.558106,0.42375 0.961182,1.32292 0.403076,0.89917 0.630452,2.29443 0.227377,1.39527 0.227377,3.32797 z m -1.312582,0 q 0,-1.66398 -0.134359,-2.84221 -0.124023,-1.18855 -0.351399,-1.94303 -0.227377,-0.75448 -0.537435,-1.10588 -0.310059,-0.3514 -0.671794,-0.3514 -0.361735,0 -0.682129,0.3514 -0.310058,0.3514 -0.54777,1.10588 -0.227376,0.75448 -0.361735,1.94303 -0.124024,1.17823 -0.124024,2.84221 0,1.66398 0.124024,2.85254 0.134359,1.17822 0.361735,1.9327 0.237712,0.75447 0.54777,1.10587 0.320394,0.3514 0.682129,0.3514 0.361735,0 0.671794,-0.3514 0.310058,-0.3514 0.537435,-1.10587 0.227376,-0.76482 0.351399,-1.94304 0.134359,-1.17822 0.134359,-2.8422 z"
         style="font-style:normal;font-variant:normal;font-weight:normal;font-stretch:ultra-condensed;font-size:21.16666794px;line-height:80.00000119%;font-family:'Stint Ultra Condensed';-inkscape-font-specification:'Stint Ultra Condensed, Ultra-Condensed';font-variant-ligatures:normal;font-variant-caps:normal;font-variant-numeric:normal;font-feature-settings:normal;text-align:center;letter-spacing:0px;word-spacing:0px;writing-mode:lr-tb;text-anchor:middle;fill:#ffffff;fill-opacity:1;stroke:none;stroke-width:0.26458335"
         id="path119"
         inkscape:connector-curvature="0" />
    </g>
    <g
       aria-label="10"
       style="font-style:normal;font-variant:normal;font-weight:normal;font-stretch:ultra-condensed;font-size:21.16666794px;line-height:50%;font-family:'Stint Ultra Condensed';-inkscape-font-specification:'Stint Ultra Condensed, Ultra-Condensed';font-variant-ligatures:normal;font-variant-caps:normal;font-variant-numeric:normal;text-align:center;letter-spacing:0px;word-spacing:0px;writing-mode:lr-tb;text-anchor:middle;fill:#008000;fill-opacity:1;stroke:none;stroke-width:0.26458335"
       id="text49">
      <path
         d="M 2.4701331,270.43212 H 3.8447263 V 258.5362 l -1.6949871,1.06454 v -1.14722 l 1.6949871,-1.0542 h 1.2712403 v 13.0328 h 1.3745932 v 1.16789 H 2.4701331 Z"
         style="line-height:50%;text-align:center;text-anchor:middle;fill:#008000;fill-opacity:1;stroke-width:0.26458335"
         id="path158" />
      <path
         d="m 13.363526,264.51 q 0,1.94303 -0.227376,3.3383 -0.227377,1.39526 -0.630453,2.29443 -0.403076,0.88884 -0.961182,1.31258 -0.54777,0.42375 -1.188558,0.42375 -0.6511227,0 -1.2092282,-0.42375 -0.5477702,-0.42374 -0.9611817,-1.31258 -0.4030762,-0.89917 -0.6304525,-2.29443 -0.2273764,-1.39527 -0.2273764,-3.3383 0,-1.9327 0.2273764,-3.32796 0.2273763,-1.39527 0.6304525,-2.29444 0.4134115,-0.89917 0.9611817,-1.32291 0.5581055,-0.42375 1.2092282,-0.42375 0.640788,0 1.188558,0.42375 0.558106,0.42374 0.961182,1.32291 0.403076,0.89917 0.630453,2.29444 0.227376,1.39526 0.227376,3.32796 z m -1.312582,0 q 0,-1.66398 -0.134358,-2.8422 -0.124024,-1.18856 -0.3514,-1.94304 -0.227376,-0.75447 -0.537435,-1.10587 -0.310059,-0.3514 -0.671794,-0.3514 -0.3617347,0 -0.6821286,0.3514 -0.3100586,0.3514 -0.5477702,1.10587 -0.2273763,0.75448 -0.361735,1.94304 -0.1240235,1.17822 -0.1240235,2.8422 0,1.66398 0.1240235,2.85254 0.1343587,1.17822 0.361735,1.9327 0.2377116,0.75447 0.5477702,1.10587 0.3203939,0.3514 0.6821286,0.3514 0.361735,0 0.671794,-0.3514 0.310059,-0.3514 0.537435,-1.10587 0.227376,-0.76481 0.3514,-1.94304 0.134358,-1.17822 0.134358,-2.8422 z"
         style="line-height:50%;text-align:center;text-anchor:middle;fill:#008000;fill-opacity:1;stroke-width:0.26458335"
         id="path160" />
    </g>
    <rect
       style="opacity:1;fill:#008000;fill-opacity:1;stroke:none;stroke-width:0.05;stroke-linecap:butt;stroke-linejoin:miter;stroke-miterlimit:47.14606857;stroke-dasharray:none;stroke-dashoffset:0;stroke-opacity:1;paint-order:markers fill stroke"
       id="rect51"
       width="1.5875001"
       height="6.3500004"
       x="7.1437502"
       y="249.37498" />
    <g
       aria-label="2"
       transform="scale(-1)"
       style="font-style:normal;font-variant:normal;font-weight:normal;font-stretch:ultra-condensed;font-size:21.16666794px;line-height:50%;font-family:'Stint Ultra Condensed';-inkscape-font-specification:'Stint Ultra Condensed, Ultra-Condensed';font-variant-ligatures:normal;font-variant-caps:normal;font-variant-numeric:normal;text-align:center;letter-spacing:0px;word-spacing:0px;writing-mode:lr-tb;text-anchor:middle;fill:#008000;fill-opacity:1;stroke:none;stroke-width:0.26458335"
       id="text75">
      <path
         d="m -52.127052,-233.49998 v -0.86817 q 0.930175,-1.31258 1.663981,-2.51147 0.74414,-1.20923 1.260905,-2.38745 0.516764,-1.17823 0.785482,-2.38746 0.279052,-1.20922 0.279052,-2.53214 0,-0.51677 -0.07235,-0.99219 -0.06201,-0.47542 -0.206705,-0.83716 -0.144694,-0.37207 -0.392741,-0.58911 -0.248047,-0.22738 -0.599447,-0.22738 -0.651123,0 -0.981852,0.90951 -0.330729,0.90951 -0.330729,2.87321 h -1.312582 q 0,-1.34359 0.217041,-2.27376 0.217041,-0.94051 0.568441,-1.51929 0.361735,-0.58911 0.826823,-0.84749 0.475423,-0.26872 0.971517,-0.26872 0.640788,0 1.126546,0.28939 0.485759,0.28938 0.816488,0.80615 0.330729,0.51676 0.496094,1.2299 0.1757,0.71313 0.1757,1.55029 0,1.98438 -0.919841,4.34082 -0.909505,2.34611 -2.780192,5.05396 h 2.749186 v -2.83187 h 1.126546 v 4.02043 z"
         style="line-height:50%;text-align:center;text-anchor:middle;fill:#008000;fill-opacity:1;stroke-width:0.26458335"
         id="path155" />
    </g>
    <g
       aria-label="10"
       transform="scale(-1)"
       style="font-style:normal;font-variant:normal;font-weight:normal;font-stretch:ultra-condensed;font-size:21.16666794px;line-height:50%;font-family:'Stint Ultra Condensed';-inkscape-font-specification:'Stint Ultra Condensed, Ultra-Condensed';font-variant-ligatures:normal;font-variant-caps:normal;font-variant-numeric:normal;text-align:center;letter-spacing:0px;word-spacing:0px;writing-mode:lr-tb;text-anchor:middle;fill:#008000;fill-opacity:1;stroke:none;stroke-width:0.26458335"
       id="text79">
      <path
         d="m -54.679868,-258.75944 h 1.374593 v -11.89592 l -1.694987,1.06454 v -1.14722 l 1.694987,-1.0542 h 1.27124 v 13.0328 h 1.374593 v 1.16789 h -4.020426 z"
         style="line-height:50%;text-align:center;text-anchor:middle;fill:#008000;fill-opacity:1;stroke-width:0.26458335"
         id="path150" />
      <path
         d="m -43.786476,-264.68156 q 0,1.94303 -0.227376,3.3383 -0.227376,1.39526 -0.630452,2.29443 -0.403077,0.88884 -0.961182,1.31258 -0.54777,0.42375 -1.188558,0.42375 -0.651123,0 -1.209229,-0.42375 -0.54777,-0.42374 -0.961181,-1.31258 -0.403077,-0.89917 -0.630453,-2.29443 -0.227376,-1.39527 -0.227376,-3.3383 0,-1.9327 0.227376,-3.32796 0.227376,-1.39527 0.630453,-2.29444 0.413411,-0.89917 0.961181,-1.32291 0.558106,-0.42375 1.209229,-0.42375 0.640788,0 1.188558,0.42375 0.558105,0.42374 0.961182,1.32291 0.403076,0.89917 0.630452,2.29444 0.227376,1.39526 0.227376,3.32796 z m -1.312581,0 q 0,-1.66398 -0.134359,-2.8422 -0.124023,-1.18856 -0.3514,-1.94304 -0.227376,-0.75447 -0.537435,-1.10587 -0.310058,-0.3514 -0.671793,-0.3514 -0.361735,0 -0.682129,0.3514 -0.310059,0.3514 -0.54777,1.10587 -0.227377,0.75448 -0.361735,1.94304 -0.124024,1.17822 -0.124024,2.8422 0,1.66398 0.124024,2.85254 0.134358,1.17822 0.361735,1.9327 0.237711,0.75447 0.54777,1.10587 0.320394,0.3514 0.682129,0.3514 0.361735,0 0.671793,-0.3514 0.310059,-0.3514 0.537435,-1.10587 0.227377,-0.76481 0.3514,-1.94304 0.134359,-1.17822 0.134359,-2.8422 z"
         style="line-height:50%;text-align:center;text-anchor:middle;fill:#008000;fill-opacity:1;stroke-width:0.26458335"
         id="path152" />
    </g>
    <rect
       y="-255.89653"
       x="-50.367989"
       height="6.3500004"
       width="1.5875001"
       id="rect81"
       style="opacity:1;fill:#008000;fill-opacity:1;stroke:none;stroke-width:0.05;stroke-linecap:butt;stroke-linejoin:miter;stroke-miterlimit:47.14606857;stroke-dasharray:none;stroke-dashoffset:0;stroke-opacity:1;paint-order:markers fill stroke"
       transform="scale(-1)" />
  </g>
</svg>
