<?xml version="1.0" encoding="UTF-8" standalone="no"?>
<!-- Created with Inkscape (http://www.inkscape.org/) -->

<svg
   xmlns:dc="http://purl.org/dc/elements/1.1/"
   xmlns:cc="http://creativecommons.org/ns#"
   xmlns:rdf="http://www.w3.org/1999/02/22-rdf-syntax-ns#"
   xmlns:svg="http://www.w3.org/2000/svg"
   xmlns="http://www.w3.org/2000/svg"
   xmlns:sodipodi="http://sodipodi.sourceforge.net/DTD/sodipodi-0.dtd"
   xmlns:inkscape="http://www.inkscape.org/namespaces/inkscape"
   width="2.25in"
   height="3.5in"
   viewBox="0 0 57.150001 88.900003"
   version="1.1"
   id="svg8"
   inkscape:version="0.92.3 (2405546, 2018-03-11)"
   sodipodi:docname="royal colon.svg">
  <defs
     id="defs2" />
  <sodipodi:namedview
     id="base"
     pagecolor="#ffffff"
     bordercolor="#666666"
     borderopacity="1.0"
     inkscape:pageopacity="0.0"
     inkscape:pageshadow="2"
     inkscape:zoom="1.9051915"
     inkscape:cx="134.0046"
     inkscape:cy="173.22546"
     inkscape:document-units="in"
     inkscape:current-layer="layer1"
     showgrid="true"
     units="in"
     inkscape:snap-smooth-nodes="true"
     inkscape:window-width="1280"
     inkscape:window-height="940"
     inkscape:window-x="1909"
     inkscape:window-y="43"
     inkscape:window-maximized="1"
     inkscape:snap-text-baseline="true">
    <inkscape:grid
       type="xygrid"
       id="grid10"
       units="pt"
       spacingx="1.5875"
       spacingy="1.5875" />
  </sodipodi:namedview>
  <metadata
     id="metadata5">
    <rdf:RDF>
      <cc:Work
         rdf:about="">
        <dc:format>image/svg+xml</dc:format>
        <dc:type
           rdf:resource="http://purl.org/dc/dcmitype/StillImage" />
        <dc:title />
      </cc:Work>
    </rdf:RDF>
  </metadata>
  <g
     inkscape:label="Layer 1"
     inkscape:groupmode="layer"
     id="layer1"
     transform="translate(0,-208.09999)">
    <path
       style="opacity:1;fill:#800080;fill-opacity:1;stroke:#000000;stroke-width:0.05;stroke-linecap:butt;stroke-linejoin:miter;stroke-miterlimit:47.14606857;stroke-dasharray:none;stroke-dashoffset:0;stroke-opacity:1;paint-order:markers fill stroke"
       d="M 14.2875,211.27499 H 42.862501 V 293.825 H 14.2875 Z"
       id="rect44" />
    <path
       style="opacity:1;fill:#800080;fill-opacity:1;stroke:none;stroke-width:0.19199999;stroke-linecap:butt;stroke-linejoin:miter;stroke-miterlimit:47.14606857;stroke-dasharray:none;stroke-dashoffset:0;stroke-opacity:1;paint-order:markers fill stroke"
       d="M 30 12 A 18.000001 18.000001 0 0 0 12 30 A 18.000001 18.000001 0 0 0 30 48 A 18.000001 18.000001 0 0 0 48 30 A 18.000001 18.000001 0 0 0 30 12 z M 30 18 A 12 12 0 0 1 42 30 A 12 12 0 0 1 30 42 A 12 12 0 0 1 18 30 A 12 12 0 0 1 30 18 z M 30 54 A 18.000001 18.000001 0 0 0 12 72 A 18.000001 18.000001 0 0 0 30 90 A 18.000001 18.000001 0 0 0 48 72 A 18.000001 18.000001 0 0 0 30 54 z "
       transform="matrix(0.26458334,0,0,0.26458334,0,208.09999)"
       id="path12" />
    <path
       style="opacity:1;fill:#800080;fill-opacity:1;stroke:none;stroke-width:0.19199999;stroke-linecap:butt;stroke-linejoin:miter;stroke-miterlimit:47.14606857;stroke-dasharray:none;stroke-dashoffset:0;stroke-opacity:1;paint-order:markers fill stroke"
       d="M 186 246 A 18.000001 18.000001 0 0 0 168 264 A 18.000001 18.000001 0 0 0 186 282 A 18.000001 18.000001 0 0 0 204 264 A 18.000001 18.000001 0 0 0 186 246 z M 186 288 A 18.000001 18.000001 0 0 0 168 306 A 18.000001 18.000001 0 0 0 186 324 A 18.000001 18.000001 0 0 0 204 306 A 18.000001 18.000001 0 0 0 186 288 z M 186 294 A 12 12 0 0 1 198 306 A 12 12 0 0 1 186 318 A 12 12 0 0 1 174 306 A 12 12 0 0 1 186 294 z "
       transform="matrix(0.26458334,0,0,0.26458334,0,208.09999)"
       id="path16" />
    <g
       aria-label="J
K
Q"
       style="font-style:normal;font-variant:normal;font-weight:normal;font-stretch:ultra-condensed;font-size:21.16666794px;line-height:80.00000119%;font-family:'Stint Ultra Condensed';-inkscape-font-specification:'Stint Ultra Condensed, Ultra-Condensed';font-variant-ligatures:normal;font-variant-caps:normal;font-variant-numeric:normal;text-align:center;letter-spacing:0px;word-spacing:0px;writing-mode:lr-tb;text-anchor:middle;fill:#800080;fill-opacity:1;stroke:none;stroke-width:0.26458335"
       id="text16">
      <path
         d="m 7.0590006,233.58681 h 4.0514324 v 1.15755 H 9.8391928 v 9.1674 q 0,1.11621 -0.1756999,1.89136 -0.1653646,0.76481 -0.4857585,1.25057 -0.3100586,0.47542 -0.7648112,0.69246 -0.4444173,0.20671 -1.0128581,0.20671 -0.5581055,0 -1.0025229,-0.18604 -0.434082,-0.18603 -0.7441406,-0.69246 -0.3100587,-0.51677 -0.4754233,-1.42627 -0.1653645,-0.90951 -0.1653645,-2.34611 h 1.2919108 q 0.010335,0.97151 0.041341,1.63297 0.041341,0.66146 0.144694,1.07487 0.1136882,0.40308 0.3307292,0.58911 0.217041,0.1757 0.5787761,0.1757 0.361735,0 0.5891113,-0.18603 0.2273764,-0.19637 0.3513998,-0.55811 0.1240234,-0.37207 0.1653646,-0.91984 0.041341,-0.54777 0.041341,-1.2609 v -9.10539 H 7.0590006 Z"
         style="line-height:80.00000119%;text-align:center;text-anchor:middle;fill:#800080;fill-opacity:1;stroke-width:0.26458335"
         id="path60" />
      <path
         d="m 4.1444496,250.52014 h 3.8240563 v 1.15755 H 6.6972656 v 4.84725 l 2.6251629,-4.84725 H 8.5472819 v -1.15755 h 3.1522621 v 1.15755 H 10.63501 l -2.6665041,4.94027 2.9248861,6.93498 h 1.167888 v 1.16789 H 8.691976 v -1.16789 h 0.8681641 l -2.3977866,-5.83944 -0.4650879,0.84749 v 4.99195 h 1.2712403 v 1.16789 H 4.1444496 v -1.16789 H 5.4053547 V 251.67769 H 4.1444496 Z"
         style="line-height:80.00000119%;text-align:center;text-anchor:middle;fill:#800080;fill-opacity:1;stroke-width:0.26458335"
         id="path62" />
      <path
         d="m 11.55485,274.56415 q 0,1.81901 -0.258382,3.15227 -0.248047,1.33325 -0.692464,2.24275 0.5271,0.3204 1.09554,0.54777 0.568441,0.22738 1.126547,0.3204 l -0.516765,1.29191 q -0.589111,-0.20671 -1.167887,-0.5271 -0.568441,-0.3204 -1.116211,-0.7028 -0.4340821,0.5271 -0.9611817,0.78548 -0.5167644,0.25838 -1.1058757,0.25838 -0.7751466,0 -1.4366049,-0.43408 -0.6614584,-0.43408 -1.1472169,-1.33325 -0.4857585,-0.90951 -0.7648112,-2.29444 -0.2790528,-1.39526 -0.2790528,-3.30729 0,-1.90169 0.2790528,-3.28662 0.2790527,-1.39526 0.7648112,-2.30477 0.4960938,-0.9095 1.1575522,-1.34358 0.6614583,-0.43409 1.4262696,-0.43409 0.7544759,0 1.4159343,0.43409 0.6614581,0.43408 1.1368811,1.34358 0.485759,0.89917 0.764812,2.29444 0.279052,1.38493 0.279052,3.29695 z m -1.426269,0 q 0,-3.0179 -0.5477704,-4.5992 -0.5477702,-1.5813 -1.62264,-1.5813 -1.1058757,0 -1.653646,1.60197 -0.5477702,1.59164 -0.5477702,4.57853 0,3.01791 0.5477702,4.59921 0.5477703,1.58129 1.653646,1.58129 0.6511231,0 1.1368816,-0.64078 -0.5064291,-0.46509 -0.9095053,-0.99219 l 0.5270996,-0.82682 q 0.3410645,0.49609 0.8474936,0.93017 0.5684409,-1.57096 0.5684409,-4.65088 z"
         style="line-height:80.00000119%;text-align:center;text-anchor:middle;fill:#800080;fill-opacity:1;stroke-width:0.26458335"
         id="path64" />
    </g>
    <g
       aria-label="J
K
Q"
       transform="scale(-1)"
       style="font-style:normal;font-variant:normal;font-weight:normal;font-stretch:ultra-condensed;font-size:21.16666794px;line-height:80.00000119%;font-family:'Stint Ultra Condensed';-inkscape-font-specification:'Stint Ultra Condensed, Ultra-Condensed';font-variant-ligatures:normal;font-variant-caps:normal;font-variant-numeric:normal;text-align:center;letter-spacing:0px;word-spacing:0px;writing-mode:lr-tb;text-anchor:middle;fill:#800080;fill-opacity:1;stroke:none;stroke-width:0.26458335"
       id="text30">
      <path
         d="m -50.091001,-271.51318 h 4.051433 v 1.15755 h -1.271241 v 9.1674 q 0,1.11621 -0.1757,1.89135 -0.165364,0.76482 -0.485758,1.25057 -0.310059,0.47543 -0.764811,0.69247 -0.444418,0.2067 -1.012858,0.2067 -0.558106,0 -1.002523,-0.18603 -0.434082,-0.18604 -0.744141,-0.69246 -0.310059,-0.51677 -0.475423,-1.42627 -0.165365,-0.90951 -0.165365,-2.34611 h 1.291911 q 0.01034,0.97151 0.04134,1.63297 0.04134,0.66146 0.144694,1.07487 0.113688,0.40308 0.330729,0.58911 0.217041,0.1757 0.578777,0.1757 0.361735,0 0.589111,-0.18603 0.227376,-0.19637 0.3514,-0.55811 0.124023,-0.37207 0.165364,-0.91984 0.04134,-0.54777 0.04134,-1.2609 v -9.10539 h -1.488281 z"
         style="line-height:80.00000119%;text-align:center;text-anchor:middle;fill:#800080;fill-opacity:1;stroke-width:0.26458335"
         id="path53" />
      <path
         d="m -53.005552,-254.57985 h 3.824056 v 1.15755 h -1.27124 v 4.84725 l 2.625163,-4.84725 h -0.775147 v -1.15755 h 3.152263 v 1.15755 h -1.064535 l -2.666504,4.94027 2.924887,6.93498 h 1.167887 v 1.16788 h -3.369304 v -1.16788 h 0.868165 l -2.397787,-5.83944 -0.465088,0.84749 v 4.99195 h 1.27124 v 1.16788 h -3.824056 v -1.16788 h 1.260905 v -11.87525 h -1.260905 z"
         style="line-height:80.00000119%;text-align:center;text-anchor:middle;fill:#800080;fill-opacity:1;stroke-width:0.26458335"
         id="path55" />
      <path
         d="m -45.595151,-230.53584 q 0,1.81901 -0.258382,3.15226 -0.248047,1.33326 -0.692464,2.24276 0.527099,0.3204 1.09554,0.54777 0.568441,0.22738 1.126546,0.3204 l -0.516764,1.29191 q -0.589111,-0.20671 -1.167888,-0.5271 -0.56844,-0.3204 -1.116211,-0.7028 -0.434082,0.5271 -0.961181,0.78548 -0.516765,0.25838 -1.105876,0.25838 -0.775146,0 -1.436605,-0.43408 -0.661458,-0.43408 -1.147217,-1.33325 -0.485758,-0.90951 -0.764811,-2.29444 -0.279053,-1.39526 -0.279053,-3.30729 0,-1.90169 0.279053,-3.28662 0.279053,-1.39526 0.764811,-2.30477 0.496094,-0.9095 1.157552,-1.34359 0.661459,-0.43408 1.42627,-0.43408 0.754476,0 1.415934,0.43408 0.661459,0.43409 1.136882,1.34359 0.485758,0.89917 0.764811,2.29444 0.279053,1.38492 0.279053,3.29695 z m -1.42627,0 q 0,-3.0179 -0.54777,-4.5992 -0.54777,-1.5813 -1.62264,-1.5813 -1.105876,0 -1.653646,1.60197 -0.54777,1.59163 -0.54777,4.57853 0,3.01791 0.54777,4.59921 0.54777,1.58129 1.653646,1.58129 0.651123,0 1.136882,-0.64078 -0.506429,-0.46509 -0.909506,-0.99219 l 0.5271,-0.82682 q 0.341064,0.49609 0.847494,0.93017 0.56844,-1.57096 0.56844,-4.65088 z"
         style="line-height:80.00000119%;text-align:center;text-anchor:middle;fill:#800080;fill-opacity:1;stroke-width:0.26458335"
         id="path57" />
    </g>
    <g
       aria-label="J
K
Q"
       style="font-style:normal;font-variant:normal;font-weight:normal;font-stretch:ultra-condensed;font-size:31.75px;line-height:80.00000119%;font-family:'Stint Ultra Condensed';-inkscape-font-specification:'Stint Ultra Condensed, Ultra-Condensed';font-variant-ligatures:normal;font-variant-caps:normal;font-variant-numeric:normal;font-feature-settings:normal;text-align:center;letter-spacing:0px;word-spacing:0px;writing-mode:lr-tb;text-anchor:middle;fill:#ffffff;fill-opacity:1;stroke:none;stroke-width:0.26458335"
       id="text38">
      <path
         d="m 26.435596,216.15067 h 6.077149 v 1.73632 h -1.90686 v 13.7511 q 0,1.67432 -0.26355,2.83704 -0.248047,1.14721 -0.728638,1.87585 -0.465088,0.71314 -1.147217,1.0387 -0.666626,0.31006 -1.519287,0.31006 -0.837158,0 -1.503784,-0.27906 -0.651123,-0.27905 -1.116211,-1.03869 -0.465088,-0.77515 -0.713135,-2.13941 -0.248047,-1.36425 -0.248047,-3.51916 h 1.937867 q 0.0155,1.45727 0.06201,2.44946 0.06201,0.99219 0.217041,1.61231 0.170533,0.60461 0.496094,0.88366 0.325562,0.26355 0.868164,0.26355 0.542603,0 0.883667,-0.27905 0.341065,-0.29455 0.5271,-0.83716 0.186035,-0.5581 0.248047,-1.37976 0.06201,-0.82165 0.06201,-1.89136 v -13.65808 h -2.232422 z"
         style="font-style:normal;font-variant:normal;font-weight:normal;font-stretch:ultra-condensed;font-size:31.75px;line-height:80.00000119%;font-family:'Stint Ultra Condensed';-inkscape-font-specification:'Stint Ultra Condensed, Ultra-Condensed';font-variant-ligatures:normal;font-variant-caps:normal;font-variant-numeric:normal;font-feature-settings:normal;text-align:center;writing-mode:lr-tb;text-anchor:middle;fill:#ffffff;fill-opacity:1;stroke-width:0.26458335"
         id="path46" />
      <path
         d="m 22.06377,241.55067 h 5.736084 v 1.73632 h -1.90686 v 7.27088 l 3.937744,-7.27088 h -1.16272 v -1.73632 h 4.728394 v 1.73632 H 31.79961 l -3.999756,7.4104 4.387329,10.40247 h 1.751831 v 1.75183 h -5.053955 v -1.75183 h 1.302246 l -3.596679,-8.75916 -0.697632,1.27124 v 7.48792 h 1.90686 v 1.75183 H 22.06377 v -1.75183 h 1.891358 V 243.28699 H 22.06377 Z"
         style="font-style:normal;font-variant:normal;font-weight:normal;font-stretch:ultra-condensed;font-size:31.75px;line-height:80.00000119%;font-family:'Stint Ultra Condensed';-inkscape-font-specification:'Stint Ultra Condensed, Ultra-Condensed';font-variant-ligatures:normal;font-variant-caps:normal;font-variant-numeric:normal;font-feature-settings:normal;text-align:center;writing-mode:lr-tb;text-anchor:middle;fill:#ffffff;fill-opacity:1;stroke-width:0.26458335"
         id="path48" />
      <path
         d="m 33.179371,277.61668 q 0,2.72852 -0.387573,4.7284 -0.372071,1.99987 -1.038697,3.36413 0.79065,0.48059 1.643311,0.82166 0.852661,0.34106 1.689819,0.48059 l -0.775146,1.93786 q -0.883667,-0.31006 -1.751831,-0.79065 -0.852661,-0.48059 -1.674317,-1.0542 -0.651123,0.79065 -1.441772,1.17823 -0.775147,0.38757 -1.658814,0.38757 -1.162719,0 -2.154907,-0.65112 -0.992187,-0.65113 -1.720825,-1.99988 -0.728638,-1.36426 -1.147217,-3.44165 -0.418579,-2.0929 -0.418579,-4.96094 0,-2.85254 0.418579,-4.92993 0.418579,-2.0929 1.147217,-3.45715 0.744141,-1.36426 1.736328,-2.01538 0.992188,-0.65113 2.139404,-0.65113 1.131714,0 2.123902,0.65113 0.992187,0.65112 1.705322,2.01538 0.728638,1.34875 1.147217,3.44165 0.418579,2.07739 0.418579,4.94543 z m -2.139404,0 q 0,-4.52685 -0.821656,-6.8988 -0.821655,-2.37195 -2.43396,-2.37195 -1.658813,0 -2.480468,2.40295 -0.821656,2.38745 -0.821656,6.8678 0,4.52686 0.821656,6.89881 0.821655,2.37194 2.480468,2.37194 0.976685,0 1.705323,-0.96118 -0.759644,-0.69763 -1.364258,-1.48828 l 0.790649,-1.24023 q 0.511597,0.74414 1.27124,1.39526 0.852662,-2.35645 0.852662,-6.97632 z"
         style="font-style:normal;font-variant:normal;font-weight:normal;font-stretch:ultra-condensed;font-size:31.75px;line-height:80.00000119%;font-family:'Stint Ultra Condensed';-inkscape-font-specification:'Stint Ultra Condensed, Ultra-Condensed';font-variant-ligatures:normal;font-variant-caps:normal;font-variant-numeric:normal;font-feature-settings:normal;text-align:center;writing-mode:lr-tb;text-anchor:middle;fill:#ffffff;fill-opacity:1;stroke-width:0.26458335"
         id="path50" />
    </g>
  </g>
</svg>
