<?xml version='1.0' encoding='UTF-8'?>
<!-- Created with Inkscape (http://www.inkscape.org/) and export_objects.py -->
<svg xmlns:cc="http://creativecommons.org/ns#" xmlns:dc="http://purl.org/dc/elements/1.1/" xmlns:inkscape="http://www.inkscape.org/namespaces/inkscape" xmlns:rdf="http://www.w3.org/1999/02/22-rdf-syntax-ns#" xmlns:sodipodi="http://sodipodi.sourceforge.net/DTD/sodipodi-0.dtd" xmlns:xlink="http://www.w3.org/1999/xlink" xmlns="http://www.w3.org/2000/svg" version="1.1" width="57.1500052917mm" height="88.9mm" viewBox="0 0 57.1500052917 88.9" id="svg3208" sodipodi:docname="ace-01.svg"><sodipodi:namedview id="base" pagecolor="#ffffff" bordercolor="#666666" borderopacity="1.0" inkscape:pageopacity="0.0" inkscape:pageshadow="2" inkscape:zoom="0.35" inkscape:cx="-131.42857" inkscape:cy="560" inkscape:document-units="mm" inkscape:current-layer="layer1" showgrid="false" inkscape:window-width="1920" inkscape:window-height="986" inkscape:window-x="-11" inkscape:window-y="-11" inkscape:window-maximized="1"/>
  <metadata id="metadata3205">
    <rdf:RDF>
      <cc:Work rdf:about="">
        <dc:format>image/svg+xml</dc:format>
        <dc:type rdf:resource="http://purl.org/dc/dcmitype/StillImage"/>
      </cc:Work>
    </rdf:RDF>
  </metadata>
  <g inkscape:groupmode="layer" inkscape:label="ace-" transform="matrix(1.000000,0.000000,0.000000,1.000000,-84.817855,-258.295259)"><g id="g3449" inkscape:label="01">
      <path id="rect32169" d="m 84.817856,258.29526 h 57.150004 v 88.9 H 84.817856 Z" style="display:inline;opacity:1;fill:#ffffff;fill-opacity:1;stroke:none;stroke-width:0.03527778;stroke-linecap:butt;stroke-linejoin:miter;stroke-miterlimit:47.14606857;stroke-dasharray:none;stroke-dashoffset:0;stroke-opacity:1;paint-order:markers fill stroke"/>
      <g id="text32325" style="font-style:normal;font-variant:normal;font-weight:normal;font-stretch:normal;font-size:21.16666794px;line-height:125%;font-family:'Stint Ultra Condensed';-inkscape-font-specification:'Stint Ultra Condensed, ';font-variant-ligatures:normal;font-variant-caps:normal;font-variant-numeric:normal;font-feature-settings:normal;text-align:center;letter-spacing:0px;word-spacing:0px;writing-mode:lr-tb;text-anchor:middle;display:inline;fill:#000000;fill-opacity:1;stroke:none;stroke-width:0.26458338" aria-label="A">
        <path id="path3351" style="font-style:normal;font-variant:normal;font-weight:normal;font-stretch:normal;font-size:21.16666794px;font-family:'Stint Ultra Condensed';-inkscape-font-specification:'Stint Ultra Condensed, ';text-align:center;text-anchor:middle;stroke-width:0.26458338" d="m 93.778565,270.93123 h -2.087728 l -0.50643,3.6587 h 1.116211 v 1.16788 h -3.348633 v -1.16788 h 0.981853 l 1.901693,-11.87525 h -1.395264 v -1.15755 h 3.028239 l 2.139404,13.0328 h 0.950847 v 1.16788 h -3.348633 v -1.16788 h 1.126546 z m -1.943034,-1.09554 H 93.6132 l -0.909505,-6.1805 z"/>
      </g>
      <g id="text32329" style="font-style:normal;font-variant:normal;font-weight:normal;font-stretch:normal;font-size:21.16666794px;line-height:125%;font-family:'Stint Ultra Condensed';-inkscape-font-specification:'Stint Ultra Condensed, ';font-variant-ligatures:normal;font-variant-caps:normal;font-variant-numeric:normal;font-feature-settings:normal;text-align:center;letter-spacing:0px;word-spacing:0px;writing-mode:lr-tb;text-anchor:middle;display:inline;fill:#000000;fill-opacity:1;stroke:none;stroke-width:0.26458338" transform="scale(-1)" aria-label="A">
        <path id="path3348" style="font-style:normal;font-variant:normal;font-weight:normal;font-stretch:normal;font-size:21.16666794px;font-family:'Stint Ultra Condensed';-inkscape-font-specification:'Stint Ultra Condensed, ';text-align:center;text-anchor:middle;stroke-width:0.26458338" d="m -133.0072,-334.5594 h -2.08773 l -0.50643,3.65869 h 1.11621 v 1.16789 h -3.34863 v -1.16789 h 0.98185 l 1.90169,-11.87524 h -1.39526 v -1.15755 h 3.02824 l 2.1394,13.03279 h 0.95085 v 1.16789 h -3.34863 v -1.16789 h 1.12654 z m -1.94304,-1.09554 h 1.77767 l -0.9095,-6.1805 z"/>
      </g>
      <g style="display:inline;stroke-width:0.63416415" transform="matrix(-1.0009458,0,0,-1.0009458,113.383,302.74528)" id="g32989">
        <path style="stroke-width:0.63416415" d="m 3.92,-7.93 c -1.67,0 -2.55,1.78 -3.01,3.56 -0.46,1.78 -0.5,3.56 -0.5,3.56 l -0.85,0.01 c 0,0 -0.16,-7.13 -3.5,-7.13 z" id="path32985" inkscape:connector-curvature="0"/>
        <path style="stroke-width:0.63416415" d="M 6.75,-0.8 C 6.74,2.67 1.53,5.19 0,7.93 -1.53,5.18 -6.74,2.66 -6.75,-0.8 c 0,-1.64 1.51,-2.97 3.38,-2.97 1.86,0 3.37,1.33 3.37,2.97 0,-1.64 1.51,-2.97 3.38,-2.97 1.87,0 3.37,1.33 3.37,2.97 z" id="path32987" inkscape:connector-curvature="0"/>
      </g>
      <g style="display:inline;stroke-width:1.0569402" transform="matrix(-0.60056747,0,0,-0.60056747,92.749551,282.10776)" id="g33223">
        <path style="stroke-width:1.0569402" d="m 3.92,-7.93 c -1.67,0 -2.55,1.78 -3.01,3.56 -0.46,1.78 -0.5,3.56 -0.5,3.56 l -0.85,0.01 c 0,0 -0.16,-7.13 -3.5,-7.13 z" id="path33219" inkscape:connector-curvature="0"/>
        <path style="stroke-width:1.0569402" d="M 6.75,-0.8 C 6.74,2.67 1.53,5.19 0,7.93 -1.53,5.18 -6.74,2.66 -6.75,-0.8 c 0,-1.64 1.51,-2.97 3.38,-2.97 1.86,0 3.37,1.33 3.37,2.97 0,-1.64 1.51,-2.97 3.38,-2.97 1.87,0 3.37,1.33 3.37,2.97 z" id="path33221" inkscape:connector-curvature="0"/>
      </g>
      <g id="g33229" transform="matrix(0.60056747,0,0,0.60056747,134.03653,323.38278)" style="display:inline;stroke-width:1.0569402">
        <path inkscape:connector-curvature="0" id="path33225" d="m 3.92,-7.93 c -1.67,0 -2.55,1.78 -3.01,3.56 -0.46,1.78 -0.5,3.56 -0.5,3.56 l -0.85,0.01 c 0,0 -0.16,-7.13 -3.5,-7.13 z" style="stroke-width:1.0569402"/>
        <path inkscape:connector-curvature="0" id="path33227" d="M 6.75,-0.8 C 6.74,2.67 1.53,5.19 0,7.93 -1.53,5.18 -6.74,2.66 -6.75,-0.8 c 0,-1.64 1.51,-2.97 3.38,-2.97 1.86,0 3.37,1.33 3.37,2.97 0,-1.64 1.51,-2.97 3.38,-2.97 1.87,0 3.37,1.33 3.37,2.97 z" style="stroke-width:1.0569402"/>
      </g>
    </g>
    </g></svg>
